<svg xmlns="http://www.w3.org/2000/svg"
     width="32"
     height="32"
     viewBox="0 0 172 172"
     style=" fill:#000000;">
<g fill="none"
   fill-rule="nonzero"
   stroke-width="1"
   stroke-linecap="butt"
   stroke-linejoin="miter"
   stroke-miterlimit="10"
   style="mix-blend-mode: normal">
<path d="M0,172v-172h172v172z" />
<g fill="#E4E4E4">
<path d="M86,14.33333c-39.5815,0 -71.66667,32.08517 -71.66667,71.66667c0,39.5815 32.08517,71.66667 71.66667,71.66667c39.5815,0 71.66667,-32.08517 71.66667,-71.66667c0,-39.5815 -32.08517,-71.66667 -71.66667,-71.66667zM86,28.66667c31.61217,0 57.33333,25.72117 57.33333,57.33333c0,31.61217 -25.72117,57.33333 -57.33333,57.33333c-31.61217,0 -57.33333,-25.72117 -57.33333,-57.33333c0,-31.61217 25.72117,-57.33333 57.33333,-57.33333zM71.66667,53.75v64.5l43,-32.25z" />
</g>
</g>
</svg>