<svg xmlns="http://www.w3.org/2000/svg"
     width="14"
     height="14"
     viewBox="0 0 172 172"
     style=" fill:#000000;">
<g fill="none"
   fill-rule="nonzero"
   stroke-width="1"
   stroke-linecap="butt"
   stroke-linejoin="miter"
   stroke-miterlimit="10"
   stroke-dasharray=""
   stroke-dashoffset="0"
   style="mix-blend-mode: normal">
<path d="M0,172v-172h172v172z" />
<g fill="#7c2cff">
<path d="M103.79349,39.7638c-1.04705,-0.10965 -2.12402,0.0671 -3.11302,0.5487c-1.96653,0.95747 -3.2138,2.96091 -3.2138,5.15104v23.32526h-74.53333c-6.33533,0 -11.46667,5.13133 -11.46667,11.46667v11.46667c0,6.33533 5.13133,11.46667 11.46667,11.46667h74.53333v23.34765c0,2.19587 1.24727,4.19358 3.2138,5.15104c0.80267,0.3956 1.66526,0.58229 2.51953,0.58229c1.2556,0.00001 2.50107,-0.40124 3.52734,-1.19817l52.00313,-40.54766c1.3932,-1.08933 2.20599,-2.74116 2.20599,-4.51276c0,-1.7716 -0.81279,-3.44036 -2.20599,-4.52396l-52.00313,-40.54766c-0.86573,-0.67367 -1.8868,-1.06613 -2.93385,-1.17578z" />
</g>
</g>
</svg>