<svg xmlns="http://www.w3.org/2000/svg"
     width="32"
     height="32"
     viewBox="0 0 172 172"
     style=" fill:#000000;">
<g fill="none"
   fill-rule="nonzero"
   stroke-width="1"
   stroke-linecap="butt"
   stroke-linejoin="miter"
   stroke-miterlimit="10"
   style="mix-blend-mode: normal">
<path d="M0,172v-172h172v172z" />
<g fill="#17003f">
<path d="M30.45833,14.33333c-8.89025,0 -16.125,7.23475 -16.125,16.125v93.16667c0,8.89025 7.23475,16.125 16.125,16.125h93.16667c8.89025,0 16.125,-7.23475 16.125,-16.125v-93.16667c0,-8.89025 -7.23475,-16.125 -16.125,-16.125zM146.91667,33.23682v93.97152c0,10.86467 -8.84008,19.70833 -19.70833,19.70833h-93.97152c2.22525,6.24217 8.13993,10.75 15.13818,10.75h78.83333c16.79508,0 30.45833,-13.66325 30.45833,-30.45833v-78.83333c0,-6.99825 -4.50783,-12.90935 -10.75,-15.13818z" />
</g>
</g>
</svg>