<svg xmlns="http://www.w3.org/2000/svg"
     width="48"
     height="48"
     viewBox="0 0 172 172"
     style=" fill:#000000;">
<g fill="none"
   fill-rule="nonzero"
   stroke-width="1"
   stroke-linecap="butt"
   stroke-linejoin="miter"
   stroke-miterlimit="10"
   style="mix-blend-mode: normal">
<path d="M0,172v-172h172v172z" />
<g fill="#17003f">
<path d="M44.79167,17.91667c-12.84267,0 -23.29167,10.449 -23.29167,23.29167c0,10.99086 7.65989,20.2053 17.91667,22.64079v44.30176c-10.25677,2.43549 -17.91667,11.64993 -17.91667,22.64079c0,12.84267 10.449,23.29167 23.29167,23.29167c12.84267,0 23.29167,-10.449 23.29167,-23.29167c0,-10.99086 -7.65989,-20.2053 -17.91667,-22.64079v-44.30176c10.25677,-2.43549 17.91667,-11.64993 17.91667,-22.64079c0,-12.84267 -10.449,-23.29167 -23.29167,-23.29167zM98.43669,21.45101c-1.39592,0.04068 -2.72121,0.62301 -3.69531,1.6237l-14.33333,14.33333c-2.09823,2.0991 -2.09823,5.50149 0,7.60059l14.33333,14.33333c1.34815,1.40412 3.35005,1.96971 5.23364,1.47866c1.88359,-0.49105 3.35456,-1.96202 3.84561,-3.84561c0.49105,-1.88359 -0.07455,-3.88549 -1.47866,-5.23364l-5.15804,-5.15804h15.69108c5.01031,0 8.95833,3.94802 8.95833,8.95833v52.60921c-10.25677,2.43549 -17.91667,11.64993 -17.91667,22.64079c0,12.84267 10.449,23.29167 23.29167,23.29167c12.84267,0 23.29167,-10.449 23.29167,-23.29167c0,-10.99086 -7.65989,-20.2053 -17.91667,-22.64079v-52.60921c0,-10.82086 -8.88748,-19.70833 -19.70833,-19.70833h-15.69108l5.15804,-5.15804c1.58706,-1.54566 2.06336,-3.90666 1.19966,-5.94672c-0.8637,-2.04007 -2.89048,-3.34134 -5.10493,-3.27756z" />
</g>
</g>
</svg>