<svg xmlns="http://www.w3.org/2000/svg"
     width="48"
     height="48"
     viewBox="0 0 172 172"
     style=" fill:#000000;">
<g fill="none"
   fill-rule="nonzero"
   stroke-width="1"
   stroke-linecap="butt"
   stroke-linejoin="miter"
   stroke-miterlimit="10"
   style="mix-blend-mode: normal">
<path d="M0,172v-172h172v172z" />
<g fill="#17003f">
<path d="M26.875,14.33333c-8.89025,0 -16.125,7.23475 -16.125,16.125v84.29932c3.00283,-2.27542 6.70083,-3.67432 10.75,-3.67432h8.95833c4.94142,0 8.95833,-4.01692 8.95833,-8.95833v-66.29167v-12.54167c0,-4.94142 -4.01692,-8.95833 -8.95833,-8.95833zM46.58333,35.83333v66.29167c0,8.90458 -7.22042,16.125 -16.125,16.125h-8.95833c-5.90892,0 -10.743,4.83409 -10.743,10.743v0.05599c0,5.8695 4.78952,10.68326 10.65902,10.69401c1.90275,0.00358 3.95012,0.007 6.06787,0.007h99.72445c8.90458,0 16.125,-7.22042 16.125,-16.125v-71.66667c0,-8.90458 -7.22042,-16.125 -16.125,-16.125zM150.5,54.73682v68.88818c0,12.84267 -10.449,23.29167 -23.29167,23.29167h-97.55485c2.22525,6.24217 8.13993,10.75 15.13818,10.75h82.41667c18.7695,0 34.04167,-15.27217 34.04167,-34.04167v-53.75c0,-6.99825 -4.50783,-12.90935 -10.75,-15.13818zM98.54167,60.91667h14.33333c2.967,0 5.375,2.408 5.375,5.375v14.33333c0,2.967 -2.408,5.375 -5.375,5.375c-2.967,0 -5.375,-2.408 -5.375,-5.375v-1.35775l-12.32471,12.32471c-1.04992,1.0535 -2.42429,1.57471 -3.80029,1.57471c-1.376,0 -2.75038,-0.52479 -3.80029,-1.57471l-10.53304,-10.53304l-10.53304,10.53304c-2.09983,2.09983 -5.50075,2.09983 -7.60059,0c-2.09983,-2.09983 -2.09983,-5.50075 0,-7.60059l14.33333,-14.33333c2.09983,-2.09983 5.50075,-2.09983 7.60059,0l10.53304,10.53304l8.52441,-8.52441h-1.35775c-2.967,0 -5.375,-2.408 -5.375,-5.375c0,-2.967 2.408,-5.375 5.375,-5.375zM62.70833,103.91667h50.16667c2.967,0 5.375,2.408 5.375,5.375c0,2.967 -2.408,5.375 -5.375,5.375h-50.16667c-2.967,0 -5.375,-2.408 -5.375,-5.375c0,-2.967 2.408,-5.375 5.375,-5.375z" />
</g>
</g>
</svg>